# xmcd
#
# Track frame offsets:
#        150
#        22260
#        44000
#        64255
#        108542
#        128895
#        151890
#        181615
#        215960
#        258885
#        291252
#        324297
#
# Disc length: 4440 seconds
#
# Revision: 0
# Processed by: cddbd v1.5PL3 Copyright (c) Steve Scherf et al.
# Submitted via: ExactAudioCopy v0.95a4
#
DISCID=b511560c
DTITLE=STEVIE SALAS COLORCODE - ALL THAT...AND BORN TO MACK-LIVE IN JA
DTITLE=PAN
DYEAR=1900
DGENRE=Rock
TTITLE0=Tell Your Story Walkin'
TTITLE1=Blind
TTITLE2=Got a Feeling
TTITLE3=Too Many Mountains
TTITLE4=Born to Mack
TTITLE5=I once was There
TTITLE6=Sex Machine
TTITLE7=The Harder They Come
TTITLE8=Power of Soul
TTITLE9=Start Again
TTITLE10=The Walls Came Down
TTITLE11=Trail of Tears
EXTD=
EXTT0=
EXTT1=
EXTT2=
EXTT3=
EXTT4=
EXTT5=
EXTT6=
EXTT7=
EXTT8=
EXTT9=
EXTT10=
EXTT11=
PLAYORDER=
